<svg xmlns="http://www.w3.org/2000/svg" width="410" height="404" viewBox="0 0 410 404" fill="none">
  <g clip-path="url(#clip0_17_3)">
    <path d="M399.641 59.5246L215.256 388.017C210.531 396.514 198.468 396.542 193.699 388.066L10.103 59.5545C5.049 50.5251 12.5393 39.5377 22.6332 40.8045L205.223 63.1876C206.398 63.3335 207.585 63.3334 208.76 63.1874L387.022 40.8462C397.081 39.5853 404.62 50.4839 399.514 59.5156L399.641 59.5246Z" fill="url(#paint0_linear_17_3)"/>
    <path d="M292.965 1.5744L156.801 19.292C155.563 19.4545 154.546 20.4003 154.314 21.6287L131.826 144.023C131.476 145.886 133.147 147.512 134.982 147.162L174.345 139.8C176.386 139.413 178.198 141.197 177.756 143.242L166.657 195.154C166.201 197.255 168.146 199.124 170.214 198.601L189.311 193.757C191.381 193.234 193.327 195.104 192.869 197.206L176.354 274.679C175.84 277.112 179.208 278.656 180.638 276.601L182.885 273.364L281.972 99.7434C283.012 97.9316 281.549 95.692 279.48 95.9512L239.408 101.026C237.32 101.288 235.775 99.1722 236.624 97.2417L298.261 24.0996C300.328 21.4463 298.092 17.5914 294.726 18.0371Z" fill="url(#paint1_linear_17_3)"/>
  </g>
  <defs>
    <linearGradient id="paint0_linear_17_3" x1="6.00017" y1="32.9996" x2="235" y2="344" gradientUnits="userSpaceOnUse">
      <stop stop-color="#41D1FF"/>
      <stop offset="1" stop-color="#BD34FE"/>
    </linearGradient>
    <linearGradient id="paint1_linear_17_3" x1="194.651" y1="8.81818" x2="236.076" y2="292.989" gradientUnits="userSpaceOnUse">
      <stop stop-color="#FFEA83"/>
      <stop offset="0.0833333" stop-color="#FFDD35"/>
      <stop offset="1" stop-color="#FFA800"/>
    </linearGradient>
    <clipPath id="clip0_17_3">
      <rect width="410" height="404" fill="white"/>
    </clipPath>
  </defs>
</svg>
